<svg width="44" height="44" viewBox="0 0 44 44" fill="none" xmlns="http://www.w3.org/2000/svg">
<path d="M22 44C34.1503 44 44 34.1503 44 22C44 9.84974 34.1503 0 22 0C9.84974 0 0 9.84974 0 22C0 34.1503 9.84974 44 22 44Z" fill="black"/>
<path d="M29.9607 35.8111H25.1313V11.925H22.9798C19.0363 11.925 16.9706 13.8968 16.9706 16.8402C16.9706 20.1796 18.3953 21.7268 21.3428 23.6986L23.7718 25.3357L16.7909 35.807H11.5981L17.8809 26.4583C14.268 23.8783 12.235 21.3594 12.235 17.1097C12.235 11.7985 15.9377 8.18555 22.9472 8.18555H29.9281V35.8029H29.9607V35.8111Z" fill="white"/>
</svg>
